<svg width="385" height="24" viewBox="0 0 385 24" fill="none" xmlns="http://www.w3.org/2000/svg">
<path d="M360 13C363.6 5 374.4 5 378 13" stroke="black" stroke-width="1.5" stroke-linecap="round" stroke-linejoin="round"/>
<path d="M369 17C368.606 17 368.216 16.9224 367.852 16.7716C367.488 16.6209 367.157 16.3999 366.879 16.1213C366.6 15.8427 366.379 15.512 366.228 15.1481C366.078 14.7841 366 14.394 366 14C366 13.606 366.078 13.2159 366.228 12.8519C366.379 12.488 366.6 12.1573 366.879 11.8787C367.157 11.6001 367.488 11.3791 367.852 11.2284C368.216 11.0776 368.606 11 369 11C369.796 11 370.559 11.3161 371.121 11.8787C371.684 12.4413 372 13.2044 372 14C372 14.7956 371.684 15.5587 371.121 16.1213C370.559 16.6839 369.796 17 369 17Z" stroke="black" stroke-width="1.5" stroke-linecap="round" stroke-linejoin="round"/>
</svg>
