<svg width="24" height="24" viewBox="0 0 24 24" fill="none" xmlns="http://www.w3.org/2000/svg">
<path d="M21.6602 10.369C21.6938 10.31 21.7174 10.2458 21.7302 10.179L22.4802 6.17902C22.5279 5.91381 22.4683 5.64049 22.3146 5.41919C22.1608 5.1979 21.9254 5.04676 21.6602 4.99902C21.395 4.95128 21.1216 5.01086 20.9003 5.16464C20.6791 5.31842 20.5279 5.55381 20.4802 5.81902L20.1102 7.81902C19.2778 6.29894 18.0338 5.04423 16.521 4.19881C15.0081 3.35338 13.2876 2.95147 11.5567 3.03916C9.82588 3.12685 8.15479 3.70059 6.73512 4.69459C5.31544 5.68859 4.20466 7.0626 3.53017 8.65902C3.43123 8.90439 3.43356 9.17897 3.53664 9.42263C3.63973 9.66629 3.83517 9.85916 4.08017 9.95902C4.20223 10.0096 4.33309 10.0354 4.46519 10.0351C4.59729 10.0348 4.72802 10.0083 4.84983 9.95712C4.97163 9.90598 5.0821 9.83121 5.17484 9.73714C5.26759 9.64306 5.34077 9.53154 5.39017 9.40902C5.9287 8.08583 6.85493 6.9565 8.04715 6.16942C9.23936 5.38234 10.6418 4.97434 12.0702 4.99902C13.3335 4.99313 14.5759 5.32112 15.6717 5.94978C16.7674 6.57845 17.6776 7.48547 18.3102 8.57902L16.6602 8.30902C16.5288 8.28801 16.3947 8.29307 16.2653 8.32391C16.1359 8.35476 16.0139 8.41078 15.9062 8.48878C15.7985 8.56678 15.7072 8.66523 15.6375 8.77852C15.5679 8.8918 15.5212 9.0177 15.5002 9.14902C15.4792 9.28034 15.4842 9.41452 15.5151 9.54389C15.5459 9.67325 15.6019 9.79528 15.6799 9.90299C15.7579 10.0107 15.8564 10.102 15.9697 10.1717C16.083 10.2413 16.2088 10.288 16.3402 10.309L20.5902 11.019H20.7502C20.8663 11.0204 20.9816 11.0001 21.0902 10.959C21.1268 10.9451 21.1607 10.9248 21.1902 10.899C21.2619 10.8724 21.3293 10.8353 21.3902 10.789L21.4702 10.689C21.522 10.6405 21.5689 10.5869 21.6102 10.529C21.6345 10.4784 21.6513 10.4245 21.6602 10.369ZM19.8802 14.069C19.7575 14.0188 19.6261 13.9934 19.4935 13.9944C19.3609 13.9954 19.2299 14.0227 19.108 14.0749C18.9861 14.127 18.8757 14.2028 18.7834 14.2979C18.6911 14.3931 18.6186 14.5056 18.5702 14.629C18.0279 15.9383 17.1051 17.0547 15.9213 17.8338C14.7375 18.6129 13.3472 19.0188 11.9302 18.999C10.6669 19.0049 9.42446 18.6769 8.32868 18.0483C7.23291 17.4196 6.32269 16.5126 5.69017 15.419L7.34017 15.689H7.50017C7.76539 15.7102 8.02817 15.6252 8.23071 15.4527C8.43325 15.2802 8.55895 15.0342 8.58017 14.769C8.60139 14.5038 8.51638 14.241 8.34384 14.0385C8.17131 13.8359 7.92539 13.7102 7.66017 13.689L3.41017 12.999C3.30109 12.9789 3.18925 12.9789 3.08017 12.999H3.00017C2.887 13.0291 2.77909 13.0763 2.68017 13.139C2.61275 13.1911 2.55226 13.2516 2.50017 13.319L2.41017 13.419C2.37926 13.4793 2.35576 13.5431 2.34017 13.609C2.30513 13.6601 2.28127 13.7181 2.27017 13.779L1.52017 17.779C1.48805 17.9119 1.48353 18.05 1.50688 18.1847C1.53023 18.3194 1.58097 18.4479 1.65594 18.5623C1.73092 18.6766 1.82855 18.7744 1.94279 18.8495C2.05704 18.9246 2.18548 18.9755 2.32017 18.999H2.50017C2.73696 19.0029 2.96743 18.9226 3.15056 18.7724C3.33368 18.6223 3.45757 18.412 3.50017 18.179L3.87017 16.179C4.70169 17.6995 5.94488 18.9548 7.45718 19.801C8.96948 20.6473 10.6897 21.0502 12.4205 20.9635C14.1513 20.8769 15.8226 20.3042 17.2428 19.3112C18.6631 18.3181 19.7747 16.9449 20.4502 15.349C20.5418 15.1035 20.5334 14.8319 20.4268 14.5925C20.3202 14.3531 20.1239 14.1652 19.8802 14.069Z" fill="black"/>
</svg>
